<svg xmlns="http://www.w3.org/2000/svg" width="484.592" height="8.305" viewBox="0 0 484.592 8.305">
  <g id="arcs" transform="translate(-0.5 -149.4)">
    <path id="Path_65" data-name="Path 65" d="M.5,149.9c7.308,0,7.308,5.993,14.615,5.993s7.308-5.993,14.616-5.993,7.308,5.993,14.616,5.993,7.308-5.993,14.616-5.993,7.308,5.993,14.616,5.993S80.888,149.9,88.2,149.9s7.308,5.993,14.616,5.993,7.308-5.993,14.616-5.993,7.308,5.993,14.616,5.993,7.308-5.993,14.616-5.993,7.309,5.993,14.617,5.993,7.309-5.993,14.617-5.993,7.308,5.993,14.617,5.993,7.309-5.993,14.617-5.993,7.308,5.993,14.616,5.993,7.308-5.993,14.616-5.993,7.308,5.993,14.616,5.993,7.309-5.993,14.617-5.993,7.308,5.993,14.617,5.993,7.308-5.993,14.617-5.993,7.308,5.993,14.616,5.993,7.309-5.993,14.617-5.993,7.308,5.993,14.615,5.993,7.308-5.993,14.616-5.993,7.308,5.993,14.616,5.993,7.309-5.993,14.618-5.993,7.308,5.993,14.616,5.993,7.308-5.993,14.617-5.993,7.308,5.993,14.616,5.993,7.308-5.993,14.617-5.993,7.309,5.993,14.617,5.993,7.309-5.993,14.618-5.993,7.309,5.993,14.618,5.993" transform="translate(2.249 1.312)" fill="none" stroke="#009c55" stroke-width="1"/>
    <path id="Path_66" data-name="Path 66" d="M.5,149.9c7.308,0,7.308,5.993,14.615,5.993s7.308-5.993,14.616-5.993,7.308,5.993,14.616,5.993,7.308-5.993,14.616-5.993,7.308,5.993,14.616,5.993S80.888,149.9,88.2,149.9s7.308,5.993,14.616,5.993,7.308-5.993,14.616-5.993,7.308,5.993,14.616,5.993,7.308-5.993,14.616-5.993,7.309,5.993,14.617,5.993,7.309-5.993,14.617-5.993,7.308,5.993,14.617,5.993,7.309-5.993,14.617-5.993,7.308,5.993,14.616,5.993,7.308-5.993,14.616-5.993,7.308,5.993,14.616,5.993,7.309-5.993,14.617-5.993,7.308,5.993,14.617,5.993,7.308-5.993,14.617-5.993,7.308,5.993,14.616,5.993,7.309-5.993,14.617-5.993,7.308,5.993,14.615,5.993,7.308-5.993,14.616-5.993,7.308,5.993,14.616,5.993,7.309-5.993,14.618-5.993,7.308,5.993,14.616,5.993,7.308-5.993,14.617-5.993,7.308,5.993,14.616,5.993,7.308-5.993,14.617-5.993,7.309,5.993,14.617,5.993,7.309-5.993,14.618-5.993,7.309,5.993,14.618,5.993" transform="translate(0 0)" fill="none" stroke="#e83524" stroke-miterlimit="10" stroke-width="1" opacity="0.811"/>
  </g>
</svg>
