<svg xmlns="http://www.w3.org/2000/svg" width="39.528" height="40" viewBox="0 0 39.528 40">
  <g id="Group_84" data-name="Group 84" transform="translate(-256 -3400)">
    <path id="Path_208" data-name="Path 208" d="M306.743,280.5c-.012-.055.026-.061.065-.063,5.67,1.807,9.485,5.742,12.705,10.537a31.308,31.308,0,0,1,5.055,12.275c.5,2.947.357,6.109-.983,7.946-3.65,5-14.606,3.742-18.368-.114,5.859-1.64,9.448-7.057,9.52-14.461.074-7.632-3.116-13.051-7.865-15.989-.07-.016-.043-.129-.128-.131" transform="translate(-29.304 3119.568)" fill="#4850a8" fill-rule="evenodd"/>
    <path id="Path_209" data-name="Path 209" d="M306.848,280.515a11.6,11.6,0,0,1,4.445,1.92c3.284,2.481,5.378,7.989,5.951,13.188.661,5.991-.666,12.015-3.769,15.1a6.963,6.963,0,0,1-3.9,2.031,6.233,6.233,0,0,1-4.965-1.665c6.18-1.176,9.826-6.812,10.1-14.067.289-7.682-2.98-13.4-7.732-16.311a.179.179,0,0,1-.128-.2" transform="translate(-29.172 3119.55)" fill="#4346a4" fill-rule="evenodd"/>
    <path id="Path_210" data-name="Path 210" d="M280.594,310.839c-.042.038-.066.009-.088-.024-1.285-5.811.2-11.086,2.73-16.279A31.311,31.311,0,0,1,291.31,284c2.3-1.91,5.1-3.378,7.365-3.142,6.16.643,10.572,10.75,9.128,15.941-4.362-4.243-10.848-4.625-17.287-.968-6.637,3.77-9.719,9.25-9.874,14.833.021.069-.09.1-.049.176" transform="translate(-23.82 3119.481)" fill="#fa4942" fill-rule="evenodd"/>
    <path id="Path_211" data-name="Path 211" d="M280.391,313.125a11.6,11.6,0,0,1-.573-4.807c.5-4.086,4.207-8.664,8.414-11.772,4.848-3.58,10.724-5.459,14.949-4.326a6.961,6.961,0,0,1,3.716,2.353,6.233,6.233,0,0,1,1.054,5.129c-4.121-4.753-10.827-5.074-17.236-1.665-6.787,3.609-10.09,9.309-10.219,14.88a.179.179,0,0,1-.1.208" transform="translate(-23.761 3117.073)" fill="#e83524" fill-rule="evenodd"/>
    <path id="Path_212" data-name="Path 212" d="M317.189,318.215c.055.014.044.05.029.087-4.112,4.3-9.32,6-15.043,6.794a31.32,31.32,0,0,1-13.248-.842c-2.866-.846-5.647-2.359-6.71-4.37-2.9-5.476,3.044-14.767,8.161-16.457-1.1,5.985,2.2,11.586,8.819,14.9,6.827,3.415,13.1,2.926,17.818-.054.046-.056.135.018.174-.058" transform="translate(-24.13 3114.56)" fill="#009c55" fill-rule="evenodd"/>
    <path id="Path_213" data-name="Path 213" d="M318.414,318.278a11.6,11.6,0,0,1-3.674,3.152c-3.671,1.862-9.539,1.328-14.463-.437-5.673-2.034-10.505-5.87-11.916-10.011a6.966,6.966,0,0,1-.115-4.4,6.235,6.235,0,0,1,3.675-3.73c-1.654,6.069,1.812,11.819,8.211,15.246,6.777,3.63,13.35,3.2,18.05.207a.179.179,0,0,1,.232-.029" transform="translate(-25.541 3114.685)" fill="#00894a" fill-rule="evenodd"/>
  </g>
</svg>
