<svg xmlns="http://www.w3.org/2000/svg" width="62" height="62" viewBox="0 0 62 62">
  <g id="Group_19" data-name="Group 19" transform="translate(0 0.136)">
    <circle id="Ellipse_45" data-name="Ellipse 45" cx="31" cy="31" r="31" transform="translate(0 -0.136)" fill="#ff2424" opacity="0.1"/>
    <g id="Ellipse_5" data-name="Ellipse 5" transform="translate(10 9.864)" fill="#ff2424" stroke="rgba(255,36,36,0.15)" stroke-width="5">
      <circle cx="21" cy="21" r="21" stroke="none"/>
      <circle cx="21" cy="21" r="23.5" fill="none"/>
    </g>
    <path id="youtube" d="M30.8,65.783a2.036,2.036,0,0,0-1.432-1.442A48.111,48.111,0,0,0,23.034,64a48.111,48.111,0,0,0-6.33.341,2.036,2.036,0,0,0-1.432,1.442,22.923,22.923,0,0,0,0,7.85A2.006,2.006,0,0,0,16.7,75.052a48.111,48.111,0,0,0,6.33.341,48.112,48.112,0,0,0,6.33-.341A2.006,2.006,0,0,0,30.8,73.633a22.923,22.923,0,0,0,0-7.85Zm-9.42,6.334V67.3l4.235,2.409Z" transform="translate(8.201 -38.299)" fill="#fff"/>
  </g>
</svg>
