<svg xmlns="http://www.w3.org/2000/svg" width="102" height="102" viewBox="0 0 102 102">
  <g id="Group_71" data-name="Group 71" transform="translate(-1152 -2528)">
    <circle id="Ellipse_12" data-name="Ellipse 12" cx="51" cy="51" r="51" transform="translate(1152 2528)" fill="#e2574c" opacity="0.145"/>
    <g id="document" transform="translate(1111 2549.202)">
      <g id="Group_70" data-name="Group 70" transform="translate(71)">
        <g id="Group_69" data-name="Group 69">
          <path id="Path_84" data-name="Path 84" d="M158.02,350h-25.3a1.725,1.725,0,1,0,0,3.449h25.3a1.725,1.725,0,1,0,0-3.449Z" transform="translate(-124.101 -309.758)" fill="#e2574c"/>
          <path id="Path_85" data-name="Path 85" d="M158.02,410h-25.3a1.725,1.725,0,0,0,0,3.449h25.3a1.725,1.725,0,0,0,0-3.449Z" transform="translate(-124.101 -362.859)" fill="#e2574c"/>
          <path id="Path_86" data-name="Path 86" d="M271,291.725a1.725,1.725,0,0,0,1.725,1.725h9.2a1.725,1.725,0,0,0,0-3.449h-9.2A1.725,1.725,0,0,0,271,291.725Z" transform="translate(-248.004 -256.656)" fill="#e2574c"/>
          <path id="Path_87" data-name="Path 87" d="M111.817,0H79.181a1.724,1.724,0,0,0-1.219.505L71.505,6.961A1.724,1.724,0,0,0,71,8.181V57.144a1.725,1.725,0,0,0,1.725,1.725h39.092a1.725,1.725,0,0,0,1.725-1.725V1.725A1.725,1.725,0,0,0,111.817,0Zm-1.725,55.419H74.449V8.9L79.9,3.449h30.2Z" transform="translate(-71 0)" fill="#e2574c"/>
          <path id="Path_88" data-name="Path 88" d="M204.042,87.446c-.951,0-1.7,1.252-1.7,2.1,0,1.6,2.453,3.154,5.457,3.254v.626c0,.35.4.676.951.676.476,0,.951-.325.951-.676V92.7c2.929-.476,4.931-2.353,4.931-5.457,0-3.379-2.653-4.556-4.931-5.407V78.184c1.627.125,2.1.926,2.929.926,1.1,0,1.552-1.377,1.552-2.052,0-1.727-2.929-2.128-4.48-2.178v-.626c0-.35-.476-.676-.951-.676-.551,0-.951.325-.951.676v.7c-2.653.376-5.006,1.9-5.006,5.081,0,3.2,2.7,4.28,5.006,5.156v4.055C205.944,88.922,205.093,87.446,204.042,87.446Zm5.406-1.577c.9.426,1.527.951,1.527,1.777,0,.9-.676,1.377-1.527,1.577Zm-3-6.207c0-.6.476-1.176,1.6-1.4v2.979C207.1,80.838,206.445,80.387,206.445,79.661Z" transform="translate(-187.239 -65.119)" fill="#e2574c"/>
        </g>
      </g>
    </g>
  </g>
</svg>
