<svg xmlns="http://www.w3.org/2000/svg" width="16.203" height="11.393" viewBox="0 0 16.203 11.393">
  <path id="youtube" d="M30.8,65.783a2.036,2.036,0,0,0-1.432-1.442A48.111,48.111,0,0,0,23.034,64a48.111,48.111,0,0,0-6.33.341,2.036,2.036,0,0,0-1.432,1.442,22.923,22.923,0,0,0,0,7.85A2.006,2.006,0,0,0,16.7,75.052a48.111,48.111,0,0,0,6.33.341,48.112,48.112,0,0,0,6.33-.341A2.006,2.006,0,0,0,30.8,73.633a22.923,22.923,0,0,0,0-7.85Zm-9.42,6.334V67.3l4.235,2.409Z" transform="translate(-14.933 -64)" fill="#fff"/>
</svg>
