<svg xmlns="http://www.w3.org/2000/svg" width="482.343" height="6.992" viewBox="0 0 482.343 6.992">
  <path id="Path_65" data-name="Path 65" d="M.5,149.9c7.308,0,7.308,5.993,14.615,5.993s7.308-5.993,14.616-5.993,7.308,5.993,14.616,5.993,7.308-5.993,14.616-5.993,7.308,5.993,14.616,5.993S80.888,149.9,88.2,149.9s7.308,5.993,14.616,5.993,7.308-5.993,14.616-5.993,7.308,5.993,14.616,5.993,7.308-5.993,14.616-5.993,7.309,5.993,14.617,5.993,7.309-5.993,14.617-5.993,7.308,5.993,14.617,5.993,7.309-5.993,14.617-5.993,7.308,5.993,14.616,5.993,7.308-5.993,14.616-5.993,7.308,5.993,14.616,5.993,7.309-5.993,14.617-5.993,7.308,5.993,14.617,5.993,7.308-5.993,14.617-5.993,7.308,5.993,14.616,5.993,7.309-5.993,14.617-5.993,7.308,5.993,14.615,5.993,7.308-5.993,14.616-5.993,7.308,5.993,14.616,5.993,7.309-5.993,14.618-5.993,7.308,5.993,14.616,5.993,7.308-5.993,14.617-5.993,7.308,5.993,14.616,5.993,7.308-5.993,14.617-5.993,7.309,5.993,14.617,5.993,7.309-5.993,14.618-5.993,7.309,5.993,14.618,5.993" transform="translate(-0.5 -149.401)" fill="none" stroke="#009c55" stroke-width="1"/>
</svg>
