<svg xmlns="http://www.w3.org/2000/svg" xmlns:xlink="http://www.w3.org/1999/xlink" width="215.212" height="45.807" viewBox="0 0 215.212 45.807">
  <defs>
    <clipPath id="clip-path"/>
  </defs>
  <g id="Logo" transform="translate(-13.396 -6.472)" clip-path="url(#clip-path)">
    <path id="Path_1" data-name="Path 1" d="M306.965,280.5c-.013-.063.03-.07.074-.073,6.494,2.069,10.862,6.575,14.55,12.067a35.855,35.855,0,0,1,5.789,14.057c.57,3.374.409,7-1.126,9.1-4.18,5.731-16.726,4.286-21.035-.131,6.71-1.878,10.819-8.082,10.9-16.561.085-8.74-3.568-14.945-9.006-18.31-.081-.019-.049-.148-.147-.15" transform="translate(-269.018 -273.96)" fill="#4850a8" fill-rule="evenodd"/>
    <path id="Path_2" data-name="Path 2" d="M307.173,280.515a13.284,13.284,0,0,1,5.09,2.2c3.761,2.841,6.159,9.149,6.815,15.1.757,6.861-.763,13.759-4.316,17.292a7.974,7.974,0,0,1-4.467,2.326,7.138,7.138,0,0,1-5.686-1.907c7.077-1.346,11.252-7.8,11.565-16.109.331-8.8-3.413-15.347-8.855-18.679a.2.2,0,0,1-.146-.224" transform="translate(-268.954 -273.969)" fill="#4346a4" fill-rule="evenodd"/>
    <path id="Path_3" data-name="Path 3" d="M280.675,315.2c-.048.043-.075.01-.1-.028-1.472-6.655.23-12.7,3.126-18.642a35.858,35.858,0,0,1,9.246-12.066c2.632-2.188,5.843-3.868,8.435-3.6,7.054.736,12.107,12.311,10.453,18.255-4.995-4.859-12.423-5.3-19.8-1.108-7.6,4.317-11.13,10.593-11.308,16.986.024.079-.1.116-.056.2" transform="translate(-266.394 -274.002)" fill="#fa4942" fill-rule="evenodd"/>
    <path id="Path_4" data-name="Path 4" d="M280.482,316.208a13.282,13.282,0,0,1-.657-5.5c.569-4.68,4.818-9.922,9.636-13.481,5.552-4.1,12.281-6.252,17.12-4.954a7.972,7.972,0,0,1,4.256,2.695,7.138,7.138,0,0,1,1.207,5.874c-4.719-5.443-12.4-5.811-19.739-1.907-7.772,4.133-11.555,10.66-11.7,17.04a.2.2,0,0,1-.12.238" transform="translate(-266.365 -275.154)" fill="#e83524" fill-rule="evenodd"/>
    <path id="Path_5" data-name="Path 5" d="M322.377,320.362c.063.016.05.057.033.1-4.709,4.928-10.673,6.876-17.227,7.781a35.867,35.867,0,0,1-15.171-.964c-3.282-.968-6.467-2.7-7.684-5-3.316-6.271,3.486-16.911,9.346-18.847-1.256,6.854,2.516,13.269,10.1,17.062,7.818,3.911,15,3.35,20.405-.062.053-.064.155.021.2-.066" transform="translate(-266.542 -276.356)" fill="#009c55" fill-rule="evenodd"/>
    <path id="Path_6" data-name="Path 6" d="M322.838,320.518a13.282,13.282,0,0,1-4.208,3.61c-4.2,2.133-10.924,1.521-16.562-.5-6.5-2.329-12.031-6.722-13.646-11.464a7.977,7.977,0,0,1-.132-5.035,7.14,7.14,0,0,1,4.208-4.272c-1.894,6.951,2.075,13.535,9.4,17.459,7.761,4.157,15.288,3.665,20.67.237a.205.205,0,0,1,.265-.033" transform="translate(-267.217 -276.297)" fill="#00894a" fill-rule="evenodd"/>
    <path id="Path_7" data-name="Path 7" d="M359.008,309.328a9.836,9.836,0,0,1-7.092,2.774c-6.933,0-9.865-4.773-9.892-9.626-.026-4.879,3.147-9.838,9.892-9.838a9.626,9.626,0,0,1,6.852,2.853l-2.346,2.266A6.411,6.411,0,0,0,351.915,296a6.119,6.119,0,0,0-6.426,6.479c.028,3.093,1.813,6.319,6.426,6.319a6.871,6.871,0,0,0,4.692-1.892Z" transform="translate(-270.488 -278.614)" fill="#454a4a"/>
    <path id="Path_8" data-name="Path 8" d="M359.661,311.624V292.986h13.411v3.387H363.18v5.092h9.359v3.253H363.18v6.906Z" transform="translate(-267.861 -278.562)" fill="#454a4a"/>
    <rect id="Rectangle_1" data-name="Rectangle 1" width="3.493" height="18.664" transform="translate(110.065 14.397)" fill="#454a4a"/>
    <path id="Path_9" data-name="Path 9" d="M403.839,297.591a7.153,7.153,0,0,0-4.746-1.866c-4,0-6.426,3.039-6.426,6.879,0,3.066,1.787,6.239,6.426,6.239a6.207,6.207,0,0,0,4.213-1.492v-3.307h-4.773V300.9h8v7.866a9.3,9.3,0,0,1-7.439,3.359c-7.012,0-9.865-4.613-9.865-9.519,0-5.253,3.279-10.1,9.865-10.1a9.856,9.856,0,0,1,6.933,2.853Z" transform="translate(-263.458 -278.635)" fill="#454a4a"/>
    <path id="Path_10" data-name="Path 10" d="M424.974,311.631h-4.186l-5.44-6.24h-3.386v6.24h-3.519V292.939c2.96,0,5.919.028,8.879.028,4.4.026,6.719,2.958,6.719,6.186a5.536,5.536,0,0,1-4.72,5.865l5.653,6.373Zm-13.012-15.385v5.972h5.36a2.993,2.993,0,1,0,0-5.972Z" transform="translate(-260.596 -278.569)" fill="#454a4a"/>
    <path id="Path_11" data-name="Path 11" d="M444.394,302.45c-.054,4.827-3.014,9.652-9.572,9.652s-9.6-4.719-9.6-9.626,3.146-9.838,9.6-9.838c6.424,0,9.623,4.932,9.572,9.812m-15.7.08c.079,3.066,1.734,6.346,6.133,6.346s6.051-3.307,6.105-6.373c.053-3.146-1.707-6.665-6.105-6.665s-6.215,3.546-6.133,6.692" transform="translate(-258.097 -278.614)" fill="#454a4a"/>
    <path id="Path_12" data-name="Path 12" d="M462.387,292.986v10.692c0,5.519-3.386,8.346-8.078,8.346-4.48,0-8.293-2.72-8.293-8.346V292.986h3.493v10.692c0,3.359,1.92,5.146,4.827,5.146s4.559-1.946,4.559-5.146V292.986Z" transform="translate(-255.001 -278.562)" fill="#454a4a"/>
    <path id="Path_13" data-name="Path 13" d="M473.914,306.138h-5.279v5.493h-3.519V292.967c2.933,0,5.866-.028,8.8-.028,9.119,0,9.146,13.2,0,13.2m-5.279-3.226h5.279a3.307,3.307,0,1,0,0-6.612h-5.279Z" transform="translate(-252.156 -278.569)" fill="#454a4a"/>
    <path id="Path_14" data-name="Path 14" d="M348.861,321.418a3.24,3.24,0,0,1-2.335.913,3.02,3.02,0,0,1-3.255-3.169,3.091,3.091,0,0,1,3.255-3.238,3.166,3.166,0,0,1,2.255.94l-.772.746a2.111,2.111,0,0,0-1.483-.58,2.014,2.014,0,0,0-2.114,2.132,1.968,1.968,0,0,0,2.114,2.08,2.261,2.261,0,0,0,1.544-.623Z" transform="translate(-270.302 -275.146)" fill="#454a4a"/>
    <path id="Path_15" data-name="Path 15" d="M357.052,322.176h-1.378l-1.79-2.054H352.77v2.054h-1.158v-6.151c.973,0,1.947.008,2.922.008a2.037,2.037,0,0,1,2.212,2.036,1.821,1.821,0,0,1-1.553,1.93l1.86,2.1Zm-4.282-5.063v1.965h1.764a.985.985,0,1,0,0-1.965Z" transform="translate(-269.06 -275.131)" fill="#454a4a"/>
    <path id="Path_16" data-name="Path 16" d="M364.245,322.175h-4.6v-6.142h4.6v1.123H360.8v1.413h3.326v1.079H360.8v1.387h3.449Z" transform="translate(-267.863 -275.13)" fill="#454a4a"/>
    <path id="Path_17" data-name="Path 17" d="M371.774,321.016h-3.211l-.527,1.158h-1.255l2.755-6.142H370.8l2.755,6.142h-1.263Zm-1.606-3.694-1.14,2.614h2.281Z" transform="translate(-266.801 -275.13)" fill="#454a4a"/>
    <path id="Path_18" data-name="Path 18" d="M376.8,317.086h-1.947v-1.054H379.9v1.054h-1.949v5.089H376.8Z" transform="translate(-265.6 -275.13)" fill="#454a4a"/>
    <path id="Path_19" data-name="Path 19" d="M387.343,322.175h-4.6v-6.142h4.6v1.123h-3.449v1.413h3.326v1.079h-3.326v1.387h3.449Z" transform="translate(-264.424 -275.13)" fill="#454a4a"/>
    <path id="Path_20" data-name="Path 20" d="M397.508,318.568l1.632-2.536h1.4v.053l-2.448,3.554v2.536h-1.158v-2.536l-2.36-3.554v-.053h1.376Z" transform="translate(-262.663 -275.13)" fill="#454a4a"/>
    <path id="Path_21" data-name="Path 21" d="M409.18,319.154a3.154,3.154,0,1,1-6.309.009,3.155,3.155,0,1,1,6.309-.009m-5.168.026a2.016,2.016,0,1,0,4.028-.008,2.022,2.022,0,1,0-4.028.008" transform="translate(-261.426 -275.146)" fill="#454a4a"/>
    <path id="Path_22" data-name="Path 22" d="M417.394,316.04v3.519a2.494,2.494,0,0,1-2.659,2.746,2.562,2.562,0,0,1-2.729-2.746V316.04h1.149v3.519a1.507,1.507,0,0,0,1.589,1.694c.956,0,1.5-.641,1.5-1.694V316.04Z" transform="translate(-260.066 -275.129)" fill="#454a4a"/>
    <path id="Path_23" data-name="Path 23" d="M426.032,322.176h-1.378l-1.79-2.054H421.75v2.054h-1.158v-6.151c.973,0,1.947.008,2.922.008a2.037,2.037,0,0,1,2.212,2.036,1.821,1.821,0,0,1-1.553,1.93l1.86,2.1Zm-4.282-5.063v1.965h1.764a.985.985,0,1,0,0-1.965Z" transform="translate(-258.787 -275.131)" fill="#454a4a"/>
    <path id="Path_24" data-name="Path 24" d="M433.088,322.174V316.04H437.5v1.114h-3.255v1.676h3.08V319.9h-3.08v2.273Z" transform="translate(-256.926 -275.129)" fill="#454a4a"/>
    <path id="Path_25" data-name="Path 25" d="M445.914,316.04v3.519a2.494,2.494,0,0,1-2.659,2.746,2.563,2.563,0,0,1-2.729-2.746V316.04h1.149v3.519a1.507,1.507,0,0,0,1.589,1.694c.956,0,1.5-.641,1.5-1.694V316.04Z" transform="translate(-255.818 -275.129)" fill="#454a4a"/>
    <path id="Path_26" data-name="Path 26" d="M450.739,317.086h-1.947v-1.054h5.054v1.054H451.9v5.089h-1.158Z" transform="translate(-254.588 -275.13)" fill="#454a4a"/>
    <path id="Path_27" data-name="Path 27" d="M462.253,316.04v3.519a2.494,2.494,0,0,1-2.659,2.746,2.562,2.562,0,0,1-2.729-2.746V316.04h1.149v3.519a1.507,1.507,0,0,0,1.589,1.694c.956,0,1.5-.641,1.5-1.694V316.04Z" transform="translate(-253.385 -275.129)" fill="#454a4a"/>
    <path id="Path_28" data-name="Path 28" d="M470.891,322.176h-1.378l-1.79-2.054h-1.114v2.054h-1.158v-6.151c.973,0,1.949.008,2.922.008a2.037,2.037,0,0,1,2.212,2.036,1.821,1.821,0,0,1-1.553,1.93l1.86,2.1Zm-4.282-5.063v1.965h1.764a.985.985,0,1,0,0-1.965Z" transform="translate(-252.107 -275.131)" fill="#454a4a"/>
    <path id="Path_29" data-name="Path 29" d="M478.084,322.175h-4.6v-6.142h4.6v1.123h-3.449v1.413h3.326v1.079h-3.326v1.387h3.449Z" transform="translate(-250.91 -275.13)" fill="#454a4a"/>
  </g>
</svg>
