<svg xmlns="http://www.w3.org/2000/svg" width="397.732" height="9.295" viewBox="0 0 397.732 9.295">
  <path id="Path_222" data-name="Path 222" d="M.5,149.9c8.286,0,8.286,6.795,16.571,6.795s8.286-6.795,16.572-6.795,8.286,6.795,16.572,6.795S58.5,149.9,66.787,149.9s8.286,6.795,16.572,6.795,8.287-6.795,16.573-6.795,8.286,6.795,16.572,6.795,8.286-6.795,16.572-6.795,8.286,6.795,16.572,6.795,8.286-6.795,16.572-6.795,8.286,6.795,16.573,6.795,8.287-6.795,16.573-6.795,8.286,6.795,16.573,6.795,8.287-6.795,16.573-6.795,8.286,6.795,16.572,6.795,8.286-6.795,16.572-6.795,8.286,6.795,16.572,6.795,8.286-6.795,16.573-6.795,8.286,6.795,16.573,6.795,8.286-6.795,16.573-6.795,8.286,6.795,16.572,6.795S356.8,149.9,365.09,149.9s8.285,6.795,16.571,6.795,8.286-6.795,16.571-6.795" transform="translate(-0.5 -148.65)" fill="none" stroke="#454a4a" stroke-width="2.5" opacity="0.077"/>
</svg>
