<svg xmlns="http://www.w3.org/2000/svg" width="22.939" height="16.129" viewBox="0 0 22.939 16.129">
  <path id="Path_217" data-name="Path 217" d="M37.393,66.524a2.882,2.882,0,0,0-2.028-2.041C33.576,64,26.4,64,26.4,64s-7.173,0-8.962.482a2.882,2.882,0,0,0-2.028,2.041,32.453,32.453,0,0,0,0,11.114,2.839,2.839,0,0,0,2.028,2.009c1.789.482,8.962.482,8.962.482s7.173,0,8.962-.482a2.839,2.839,0,0,0,2.028-2.009,32.453,32.453,0,0,0,0-11.114ZM24.056,75.492V68.67l6,3.411Z" transform="translate(-14.933 -64)" fill="#fff"/>
</svg>
