<svg xmlns="http://www.w3.org/2000/svg" xmlns:xlink="http://www.w3.org/1999/xlink" width="152" height="45" viewBox="0 0 152 45">
  <defs>
    <linearGradient id="linear-gradient" x1="-0.024" y1="0.638" x2="0.485" y2="0.524" gradientUnits="objectBoundingBox">
      <stop offset="0" stop-color="#ed2024"/>
      <stop offset="1" stop-color="#2e368f"/>
    </linearGradient>
    <linearGradient id="linear-gradient-2" x1="0.467" y1="0.488" x2="0.965" y2="0.384" xlink:href="#linear-gradient"/>
    <linearGradient id="linear-gradient-3" x1="0.402" y1="0.518" x2="0.932" y2="0.419" xlink:href="#linear-gradient"/>
    <linearGradient id="linear-gradient-4" x1="0.039" y1="0.707" x2="0.497" y2="0.532" xlink:href="#linear-gradient"/>
  </defs>
  <g id="smartweb" transform="translate(-24.175 -23.926)">
    <g id="Group_90" data-name="Group 90" transform="translate(77.024 38.52)">
      <path id="Path_229" data-name="Path 229" d="M190.893,78.428a5.938,5.938,0,0,1-.337,1.955,4.148,4.148,0,0,1-1.011,1.483,4.947,4.947,0,0,1-1.585.944,5.788,5.788,0,0,1-2.09.337,8.981,8.981,0,0,1-3.27-.573,9.66,9.66,0,0,1-2.36-1.349l1.821-1.821a5.194,5.194,0,0,0,1.652,1.011,7.131,7.131,0,0,0,1.045.3c.337.034.573.067.809.067a3.413,3.413,0,0,0,1.045-.135,4.876,4.876,0,0,0,.843-.371,1.689,1.689,0,0,0,.742-1.45,1.487,1.487,0,0,0-.4-1.011,2.069,2.069,0,0,0-.809-.573,6.368,6.368,0,0,0-.843-.371c-.3-.1-.573-.169-.809-.236-.067-.034-.135-.034-.2-.067-.067,0-.1-.034-.169-.067a.255.255,0,0,1-.135-.034c-.3-.1-.742-.236-1.349-.472a12.493,12.493,0,0,1-1.753-.91,3.914,3.914,0,0,1-2.023-3.3,4.7,4.7,0,0,1,.438-2.191,4.212,4.212,0,0,1,1.18-1.45,4.867,4.867,0,0,1,1.618-.809,6.443,6.443,0,0,1,1.753-.236,8.441,8.441,0,0,1,2.663.371,10.853,10.853,0,0,1,1.719.742c.236.135.4.27.573.371.169.135.3.236.4.337l-1.888,1.888a4.754,4.754,0,0,0-1.214-.91,4.365,4.365,0,0,0-1.955-.438,3.675,3.675,0,0,0-.877.1,2.659,2.659,0,0,0-.775.3,1.809,1.809,0,0,0-.978,1.585,1.372,1.372,0,0,0,.4,1.011,3.168,3.168,0,0,0,.809.607,6.838,6.838,0,0,0,.877.371c.3.1.607.169.877.236l.27.067c.067.034.2.067.4.135a7.127,7.127,0,0,1,.742.27q.4.2.91.4a9.288,9.288,0,0,1,.978.573A3.894,3.894,0,0,1,190.893,78.428Z" transform="translate(-179.7 -67.1)" fill="#333"/>
      <path id="Path_230" data-name="Path 230" d="M228.566,80.1a3.576,3.576,0,0,1,1.618.371,3.228,3.228,0,0,1,1.146.978A4.434,4.434,0,0,1,232,82.9a7.388,7.388,0,0,1,.236,1.787v6.844h-2.663V84.651a1.842,1.842,0,0,0-1.854-1.854,1.681,1.681,0,0,0-1.315.539,1.781,1.781,0,0,0-.539,1.315V91.5h-2.663V84.651a1.781,1.781,0,0,0-.539-1.315,1.213,1.213,0,0,0-.607-.4,1.946,1.946,0,0,0-2.057.4,1.781,1.781,0,0,0-.539,1.315V91.5H216.8V80.4h2.663v.978a6.777,6.777,0,0,1,1.349-.91,3.193,3.193,0,0,1,1.45-.371,3.075,3.075,0,0,1,1.652.4,3.981,3.981,0,0,1,1.146,1.113,4.883,4.883,0,0,1,1.551-1.079A3.817,3.817,0,0,1,228.566,80.1Z" transform="translate(-204.292 -75.717)" fill="#333"/>
      <path id="Path_231" data-name="Path 231" d="M277.332,80.337V91.429h-2.663V85.866a3,3,0,0,0-.944-2.259,3.133,3.133,0,0,0-2.259-.944,2.89,2.89,0,0,0-1.214.236,3.712,3.712,0,0,0-1.045.674,3.134,3.134,0,0,0-.944,2.259,2.932,2.932,0,0,0,.944,2.225,3.186,3.186,0,0,0,1.045.708,3.109,3.109,0,0,0,1.214.236,2.638,2.638,0,0,0,1.18-.236l.944,2.36a5.281,5.281,0,0,1-2.36.506,5.623,5.623,0,0,1-2.259-.438,5.512,5.512,0,0,1-1.787-1.247,5.8,5.8,0,0,1-1.585-4.113,6.43,6.43,0,0,1,.4-2.293,5.614,5.614,0,0,1,1.18-1.854,5.175,5.175,0,0,1,1.787-1.247A5.512,5.512,0,0,1,271.23,80a5,5,0,0,1,1.922.337,6.3,6.3,0,0,1,1.483.843v-.843Z" transform="translate(-236.64 -75.651)" fill="#333"/>
      <path id="Path_232" data-name="Path 232" d="M309.079,80.337A4.333,4.333,0,0,1,310.866,80v2.663a3,3,0,0,0-2.259.944,3.251,3.251,0,0,0-.944,2.259v5.563H305V80.337h2.663v.877A5.013,5.013,0,0,1,309.079,80.337Z" transform="translate(-262.757 -75.651)" fill="#333"/>
      <path id="Path_233" data-name="Path 233" d="M331.368,86.357h-2.427a3.338,3.338,0,0,1-1.416-.3,3.443,3.443,0,0,1-1.146-.775,3.822,3.822,0,0,1-.775-1.146,3.337,3.337,0,0,1-.3-1.416V73.074l2.663-.674v2.562h1.551l.674,2.663h-2.225v5.091a.97.97,0,0,0,.3.708.9.9,0,0,0,.674.3h1.787Z" transform="translate(-276.213 -70.613)" fill="#333"/>
      <path id="Path_234" data-name="Path 234" d="M344.555,83.374,339.7,67.9h2.8l3.439,10.923L349.106,67.9h2.8l3.439,10.923L358.512,67.9h2.765l-4.518,15.474h-2.764l-3.439-10.923-3.2,10.923Z" transform="translate(-285.758 -67.63)" fill="#333"/>
      <path id="Path_235" data-name="Path 235" d="M409.632,87.414h-5.8a2.8,2.8,0,0,0,.641.91,3.186,3.186,0,0,0,1.045.708,2.89,2.89,0,0,0,1.214.236,3.2,3.2,0,0,0,1.618-.4l2.765,1.113a5.793,5.793,0,0,1-1.922,1.45,5.953,5.953,0,0,1-2.461.506,5.777,5.777,0,0,1-5.394-3.54,5.623,5.623,0,0,1-.438-2.259,5.833,5.833,0,1,1,11.665,0,5.4,5.4,0,0,1-.169,1.315h-2.764Zm-2.9-4.518a3.111,3.111,0,0,0-2.259.944,2.931,2.931,0,0,0-.641.944h5.8a3.345,3.345,0,0,0-.641-.944A3,3,0,0,0,406.732,82.9Z" transform="translate(-326.326 -75.85)" fill="#333"/>
      <path id="Path_236" data-name="Path 236" d="M445.1,72.047a5.623,5.623,0,0,1,2.259.438,5.513,5.513,0,0,1,1.787,1.247,6.214,6.214,0,0,1,1.18,1.854,6.43,6.43,0,0,1,.4,2.293,6.247,6.247,0,0,1-.4,2.259,5.614,5.614,0,0,1-1.18,1.854,5.175,5.175,0,0,1-1.787,1.247,5.512,5.512,0,0,1-2.259.438,5.384,5.384,0,0,1-2.36-.506l.944-2.36a3.2,3.2,0,0,0,1.18.236,2.954,2.954,0,0,0,2.259-.944,3.057,3.057,0,0,0,.944-2.225,3,3,0,0,0-.944-2.259,3.2,3.2,0,0,0-5.462,2.259v5.529H439V67.9h2.663v5.327a6.3,6.3,0,0,1,1.483-.843A5.3,5.3,0,0,1,445.1,72.047Z" transform="translate(-351.581 -67.63)" fill="#333"/>
    </g>
    <g id="Group_91" data-name="Group 91" transform="translate(78.638 58.652)">
      <path id="Path_237" data-name="Path 237" d="M184.377,134.976a.329.329,0,0,1-.135.3.412.412,0,0,1-.3.135h0a.329.329,0,0,1-.3-.135.366.366,0,0,1-.135-.3v-2.023a1.727,1.727,0,0,1,1.753-1.753,1.612,1.612,0,0,1,1.315.573,1.612,1.612,0,0,1,1.315-.573,1.727,1.727,0,0,1,1.753,1.753v2.023a.329.329,0,0,1-.135.3.412.412,0,0,1-.3.135h0a.329.329,0,0,1-.3-.135.366.366,0,0,1-.135-.3v-2.023a.877.877,0,0,0-1.753,0v2.023a.329.329,0,0,1-.135.3.366.366,0,0,1-.3.135h0a.329.329,0,0,1-.3-.135.366.366,0,0,1-.135-.3v-2.023a.877.877,0,0,0-1.753,0v2.023Z" transform="translate(-183.5 -129.683)" fill="#333"/>
      <path id="Path_238" data-name="Path 238" d="M207.574,131.848a2.036,2.036,0,0,1,.607,1.483v1.686a.329.329,0,0,1-.135.3.412.412,0,0,1-.3.135h0a.329.329,0,0,1-.3-.135.366.366,0,0,1-.135-.3,1.533,1.533,0,0,1-1.214.438,2.09,2.09,0,1,1,0-4.18A1.683,1.683,0,0,1,207.574,131.848Zm-2.326.641a1.17,1.17,0,0,0-.337.843,1.156,1.156,0,0,0,1.214,1.214,1.07,1.07,0,0,0,.843-.337,1.224,1.224,0,0,0,.371-.877,1.149,1.149,0,0,0-.371-.843,1.207,1.207,0,0,0-.843-.371A1.169,1.169,0,0,0,205.247,132.489Z" transform="translate(-197.089 -129.724)" fill="#333"/>
      <path id="Path_239" data-name="Path 239" d="M219.138,126.7a.329.329,0,0,1,.3.135.412.412,0,0,1,.135.3V129.7h.135a1.208,1.208,0,0,0,.809-.3,1.17,1.17,0,0,0,.4-.775.406.406,0,0,1,.438-.371h0a.433.433,0,0,1,.337.135.471.471,0,0,1,.1.3v.034a1.911,1.911,0,0,1-.708,1.382,2.428,2.428,0,0,1,.607.674,1.939,1.939,0,0,1,.27,1.045v.2a.329.329,0,0,1-.135.3.412.412,0,0,1-.3.135h0a.329.329,0,0,1-.3-.135.366.366,0,0,1-.135-.3v-.2a1.149,1.149,0,0,0-.371-.843,1.17,1.17,0,0,0-.843-.337h-.3v1.382a.329.329,0,0,1-.135.3.412.412,0,0,1-.3.135h0a.329.329,0,0,1-.3-.135.366.366,0,0,1-.135-.3v-4.888a.462.462,0,0,1,.438-.438Z" transform="translate(-206.833 -126.7)" fill="#333"/>
      <path id="Path_240" data-name="Path 240" d="M234.112,132.48a.428.428,0,0,1,.034.2.3.3,0,0,1-.034.169.407.407,0,0,1-.236.236c-.337.169-.809.371-1.349.607-.708.3-1.113.506-1.214.539a1.249,1.249,0,0,0,1.585.1,1.453,1.453,0,0,0,.438-.573.41.41,0,0,1,.438-.3.423.423,0,0,1,.371.2.364.364,0,0,1,.1.236.3.3,0,0,1-.034.169,2.177,2.177,0,0,1-2.023,1.416,2.09,2.09,0,1,1,0-4.18,1.985,1.985,0,0,1,1.146.337A1.583,1.583,0,0,1,234.112,132.48Zm-1.922-.337a1.224,1.224,0,0,0-.877.371,1.194,1.194,0,0,0-.337.877v.034l2.057-.91A.919.919,0,0,0,232.19,132.143Z" transform="translate(-214.39 -129.749)" fill="#333"/>
      <path id="Path_241" data-name="Path 241" d="M251.781,132.143a.348.348,0,0,0-.371.371.371.371,0,0,0,.2.337,2.376,2.376,0,0,0,.607.169,1.272,1.272,0,0,1,.641.337,1.122,1.122,0,0,1,.3.843,1.365,1.365,0,0,1-.371.91,1.245,1.245,0,0,1-.91.371h-.944a.329.329,0,0,1-.3-.135.366.366,0,0,1-.135-.3h0a.329.329,0,0,1,.135-.3.412.412,0,0,1,.3-.135h1.011a.348.348,0,0,0,.371-.371.324.324,0,0,0-.2-.3,4.366,4.366,0,0,0-.607-.169,1.6,1.6,0,0,1-.641-.337,1.122,1.122,0,0,1-.3-.843,1.365,1.365,0,0,1,.371-.91,1.245,1.245,0,0,1,.91-.371h.674a.329.329,0,0,1,.3.135.412.412,0,0,1,.135.3h0a.329.329,0,0,1-.135.3.412.412,0,0,1-.3.135h-.742Z" transform="translate(-227.912 -129.749)" fill="#333"/>
      <path id="Path_242" data-name="Path 242" d="M261.177,134.976a.329.329,0,0,1-.135.3.412.412,0,0,1-.3.135h0a.329.329,0,0,1-.3-.135.366.366,0,0,1-.135-.3v-2.023a1.727,1.727,0,0,1,1.753-1.753,1.795,1.795,0,0,0,2.63,0,1.727,1.727,0,0,1,1.753,1.753v2.023a.329.329,0,0,1-.135.3.412.412,0,0,1-.3.135h0a.329.329,0,0,1-.3-.135.366.366,0,0,1-.135-.3v-2.023a.877.877,0,0,0-1.753,0v2.023a.329.329,0,0,1-.135.3.366.366,0,0,1-.3.135h0a.329.329,0,0,1-.3-.135.366.366,0,0,1-.135-.3v-2.023a.877.877,0,0,0-1.753,0v2.023Z" transform="translate(-234.408 -129.683)" fill="#333"/>
      <path id="Path_243" data-name="Path 243" d="M284.374,131.848a2.036,2.036,0,0,1,.607,1.483v1.686a.329.329,0,0,1-.135.3.412.412,0,0,1-.3.135h0a.329.329,0,0,1-.3-.135.366.366,0,0,1-.135-.3,1.533,1.533,0,0,1-1.214.438,2.09,2.09,0,1,1,0-4.18A1.683,1.683,0,0,1,284.374,131.848Zm-2.36.641a1.17,1.17,0,0,0-.337.843,1.156,1.156,0,0,0,1.214,1.214,1.07,1.07,0,0,0,.843-.337,1.224,1.224,0,0,0,.371-.877,1.149,1.149,0,0,0-.371-.843,1.207,1.207,0,0,0-.843-.371A1.169,1.169,0,0,0,282.014,132.489Z" transform="translate(-247.997 -129.724)" fill="#333"/>
      <path id="Path_244" data-name="Path 244" d="M297.287,131.034a.329.329,0,0,1,.3.135.412.412,0,0,1,.135.3h0a.329.329,0,0,1-.135.3.412.412,0,0,1-.3.135h-.2a.691.691,0,0,0-.708.708v2.158a.329.329,0,0,1-.135.3.412.412,0,0,1-.3.135h0a.329.329,0,0,1-.3-.135.366.366,0,0,1-.135-.3v-2.158A1.612,1.612,0,0,1,297.118,131h.169Z" transform="translate(-257.741 -129.55)" fill="#333"/>
      <path id="Path_245" data-name="Path 245" d="M303.772,126.7a.329.329,0,0,1,.3.135.412.412,0,0,1,.135.3v1.045h.539a.329.329,0,0,1,.3.135.412.412,0,0,1,.135.3h0a.329.329,0,0,1-.135.3.412.412,0,0,1-.3.135h-.539v2.191a.23.23,0,0,0,.236.236h.3a.329.329,0,0,1,.3.135.412.412,0,0,1,.135.3h0a.329.329,0,0,1-.135.3.412.412,0,0,1-.3.135h-.3a1.046,1.046,0,0,1-.809-.337,1.1,1.1,0,0,1-.337-.809v-4.079a.329.329,0,0,1,.135-.3.433.433,0,0,1,.337-.135Z" transform="translate(-262.911 -126.7)" fill="#333"/>
      <path id="Path_246" data-name="Path 246" d="M319.631,131.284a.41.41,0,0,1,.3.438v.034a.541.541,0,0,1-.169.371.383.383,0,0,1-.27.1.2.2,0,0,1-.135-.034,1.433,1.433,0,0,0-.371-.067,1.224,1.224,0,0,0-.877.371,1.194,1.194,0,0,0-.337.877,1.118,1.118,0,0,0,.337.843,1.224,1.224,0,0,0,.877.371,1.434,1.434,0,0,0,.371-.067c.034,0,.1-.034.135-.034a.448.448,0,0,1,.27.1.4.4,0,0,1,.169.371.435.435,0,0,1-.3.438,1.963,1.963,0,0,1-.641.1,2.09,2.09,0,1,1,0-4.18A.721.721,0,0,1,319.631,131.284Z" transform="translate(-271.926 -129.699)" fill="#333"/>
      <path id="Path_247" data-name="Path 247" d="M328.172,126.7a.329.329,0,0,1,.3.135.412.412,0,0,1,.135.3v1.281a1.53,1.53,0,0,1,.877-.2,1.727,1.727,0,0,1,1.753,1.753v2.023a.329.329,0,0,1-.135.3.366.366,0,0,1-.3.135h0a.329.329,0,0,1-.3-.135.366.366,0,0,1-.135-.3V129.97a.925.925,0,0,0-.877-.877.986.986,0,0,0-.641.27.844.844,0,0,0-.27.607v2.023a.329.329,0,0,1-.135.3.412.412,0,0,1-.3.135h0a.329.329,0,0,1-.3-.135.366.366,0,0,1-.135-.3v-4.855a.329.329,0,0,1,.135-.3.433.433,0,0,1,.337-.135Z" transform="translate(-279.085 -126.7)" fill="#333"/>
      <path id="Path_248" data-name="Path 248" d="M342.29,131.1a2.072,2.072,0,1,1-1.483.607A2.036,2.036,0,0,1,342.29,131.1Zm0,.91a1.224,1.224,0,0,0-.877.371,1.194,1.194,0,0,0-.337.877,1.118,1.118,0,0,0,.337.843,1.224,1.224,0,0,0,.877.371,1.149,1.149,0,0,0,.843-.371,1.207,1.207,0,0,0,.371-.843,1.224,1.224,0,0,0-.371-.877A1.149,1.149,0,0,0,342.29,132.01Z" transform="translate(-287.371 -129.617)" fill="#333"/>
      <path id="Path_249" data-name="Path 249" d="M355.306,127.711a.506.506,0,1,1,.371-.877.483.483,0,0,1,.169.371.541.541,0,0,1-.169.371A.507.507,0,0,1,355.306,127.711Zm0,.472a.329.329,0,0,1,.3.135.412.412,0,0,1,.135.3v3.338a.329.329,0,0,1-.135.3.366.366,0,0,1-.3.135h0a.329.329,0,0,1-.3-.135.366.366,0,0,1-.135-.3v-3.338a.329.329,0,0,1,.135-.3.427.427,0,0,1,.3-.135Z" transform="translate(-297.049 -126.7)" fill="#333"/>
      <path id="Path_250" data-name="Path 250" d="M362.731,131.284a.41.41,0,0,1,.3.438v.034a.541.541,0,0,1-.169.371.383.383,0,0,1-.27.1.2.2,0,0,1-.135-.034,1.433,1.433,0,0,0-.371-.067,1.224,1.224,0,0,0-.877.371,1.194,1.194,0,0,0-.337.877,1.118,1.118,0,0,0,.337.843,1.224,1.224,0,0,0,.877.371,1.434,1.434,0,0,0,.371-.067c.034,0,.1-.034.135-.034a.448.448,0,0,1,.27.1.4.4,0,0,1,.169.371.435.435,0,0,1-.3.438,1.963,1.963,0,0,1-.641.1,2.09,2.09,0,1,1,0-4.18A.717.717,0,0,1,362.731,131.284Z" transform="translate(-300.496 -129.699)" fill="#333"/>
      <path id="Path_251" data-name="Path 251" d="M374.612,132.48a.428.428,0,0,1,.034.2.3.3,0,0,1-.034.169.407.407,0,0,1-.236.236c-.337.169-.809.371-1.349.607-.708.3-1.113.506-1.214.539a1.249,1.249,0,0,0,1.585.1,1.453,1.453,0,0,0,.438-.573.41.41,0,0,1,.438-.3.423.423,0,0,1,.371.2.364.364,0,0,1,.1.236.3.3,0,0,1-.034.169,2.177,2.177,0,0,1-2.023,1.416,2.09,2.09,0,1,1,0-4.18,1.985,1.985,0,0,1,1.146.337A1.583,1.583,0,0,1,374.612,132.48Zm-1.922-.337a1.224,1.224,0,0,0-.877.371,1.194,1.194,0,0,0-.337.877v.034l2.056-.91A.919.919,0,0,0,372.69,132.143Z" transform="translate(-307.522 -129.749)" fill="#333"/>
    </g>
    <g id="Group_92" data-name="Group 92" transform="translate(24.175 23.926)">
      <path id="Path_252" data-name="Path 252" d="M43.31,67.412l-4.619,4.629a2.976,2.976,0,0,1-3.911.27h-.034a20.2,20.2,0,0,1-2.023-1.791h0a22.444,22.444,0,0,1,0-31.691,26.328,26.328,0,0,1,2.562-2.23C32.387,41.533,26.419,55.452,43.31,67.412Z" transform="translate(-26.175 -32.327)" fill="url(#linear-gradient)"/>
      <path id="Path_253" data-name="Path 253" d="M118.652,39.167h0a22.464,22.464,0,0,1,0,31.657,21,21,0,0,1-2.663,2.264c2.866-4.764,9.1-18.852-7.889-30.913l4.585-4.595a2.976,2.976,0,0,1,3.911-.27h.034C117.337,37.917,118.012,38.526,118.652,39.167Z" transform="translate(-80.48 -32.395)" fill="url(#linear-gradient-2)"/>
      <path id="Path_254" data-name="Path 254" d="M75.089,53l-5.7,5.7c-3.911,3.911-9.473,1.652-11.092-2.36.877,2.663,3.54,6.81,11.53,9.44h-.067c7.147,2.326,10.013,5.9,11.159,8.563h0c.034.067.1.169.135.236a5.994,5.994,0,0,1-1.618,7.451c-5.462,4.349-13.553,3.135-15.946,2.663a1.218,1.218,0,0,0-1.18.4h0a1.186,1.186,0,0,0,.573,1.922,22.392,22.392,0,0,0,20.093-3.169C85.878,79.06,92.115,65,75.089,53Z" transform="translate(-47.47 -43.121)" fill="url(#linear-gradient-3)"/>
      <path id="Path_255" data-name="Path 255" d="M54.228,59.046l5.7-5.7c3.911-3.911,9.473-1.652,11.092,2.36-.877-2.663-3.54-6.81-11.53-9.44h.067c-7.147-2.326-10.013-5.934-11.159-8.563a6.415,6.415,0,0,1-.843-3.978,4.327,4.327,0,0,1,1.214-2.7c5.394-5.563,14.5-4.18,17.059-3.675a1.218,1.218,0,0,0,1.18-.4h0a1.186,1.186,0,0,0-.573-1.922A22.391,22.391,0,0,0,46.339,28.2C43.44,32.986,37.2,47.011,54.228,59.046Z" transform="translate(-37.194 -23.926)" fill="url(#linear-gradient-4)"/>
    </g>
  </g>
</svg>
